<?xml version="1.0" encoding="utf-8"?>
<!-- Generator: Adobe Illustrator 21.0.2, SVG Export Plug-In . SVG Version: 6.00 Build 0)  -->
<svg version="1.1" id="Capa_1" xmlns="http://www.w3.org/2000/svg" xmlns:xlink="http://www.w3.org/1999/xlink" x="0px" y="0px"
	 viewBox="0 0 512 512" style="enable-background:new 0 0 512 512;" xml:space="preserve">
<style type="text/css">
	.st0{fill:#97C89A;}
</style>
<g>
	<path class="st0" d="M265.8,445.9c0-5.2,4.2-9.4,9.4-9.4h32.3c13.6,9.1,28.9,15.4,45.2,18.4c-0.7,0.2-1.3,0.4-2,0.4h-75.5
		C269.9,455.3,265.8,451,265.8,445.9z M242.8,370.7h16.7c-1.8-6.2-3.1-12.4-3.8-18.8h-12.9c-5.2,0-9.4,4.2-9.4,9.4
		C233.4,366.5,237.6,370.7,242.8,370.7z M173.7,133.5c-11.5-7.7-19.5-23.1-19.5-36.9c0-19.5,15.8-35.3,35.2-35.3
		s35.2,15.8,35.2,35.3c0,13.8-8,29.1-19.5,36.9c27.6,7,48.1,31,48.1,48.8c0,21-127.6,21-127.6,0
		C125.6,164.5,146.1,140.5,173.7,133.5z M171.6,180.1l17.9,17.9l17.9-17.9l-15.1-36.4h0.1l5.9-6.7c-2.9,1-5.7,1.6-8.8,1.6
		c-3.1,0-6-0.6-8.8-1.6l5.8,6.7h0.2L171.6,180.1z M407.5,491.5L407.5,491.5l-0.4-0.8c-0.2,0-0.4,0.1-0.6,0.1H79.2
		c-16.9,0-30.7-13.8-30.7-30.7v-409c0-16.9,13.8-30.7,30.7-30.7h327.2c16.9,0,30.7,13.8,30.7,30.7v187.2c7.3,4.6,14.3,9.9,20.5,16.1
		V51.1c0-28.2-22.9-51.1-51.1-51.1H79.2C51,0,28.1,22.9,28.1,51.1v409c0,28.2,22.9,51.1,51.1,51.1h327.2c4,0,7.8-0.6,11.6-1.5
		L407.5,491.5z M135,327.9h120.5c0.6-6.3,1.6-12.6,3.2-18.8H135c-5.2,0-9.4,4.2-9.4,9.4C125.6,323.7,129.8,327.9,135,327.9z
		 M135,242.3h168.8c3.3-2.4,6.8-4.7,10.4-6.8c9.2-5.3,19.1-9.3,29.3-12H135c-5.2,0-9.4,4.2-9.4,9.4S129.8,242.3,135,242.3z
		 M135,285.1h132.5c3.3-6.6,7.2-12.9,11.6-18.8H135c-5.2,0-9.4,4.2-9.4,9.4C125.6,280.9,129.8,285.1,135,285.1z M455.9,290.8
		c26.2,45.4,10.6,103.6-34.8,129.8c-45.3,26.2-103.6,10.7-129.8-34.8c-26.2-45.3-10.6-103.6,34.7-129.8
		C371.5,229.8,429.7,245.4,455.9,290.8z M442.3,298.7c-21.9-37.9-70.5-50.9-108.3-29.1c-37.9,21.9-50.9,70.4-29,108.3
		c21.8,37.9,70.4,50.9,108.3,29C451.2,385.1,464.2,336.5,442.3,298.7z M445,414.7l-40.8,23.6l31.5,54.4l40.8-23.6L445,414.7z
		 M480.7,476.6l-40.9,23.6c6.5,11.3,21,15.1,32.2,8.7C483.4,502.3,487.3,487.9,480.7,476.6z"/>
</g>
</svg>
