<?xml version="1.0" encoding="utf-8"?>
<!-- Generator: Adobe Illustrator 21.0.2, SVG Export Plug-In . SVG Version: 6.00 Build 0)  -->
<svg version="1.1" id="Capa_1" xmlns="http://www.w3.org/2000/svg" xmlns:xlink="http://www.w3.org/1999/xlink" x="0px" y="0px"
	 viewBox="0 0 512 512" style="enable-background:new 0 0 512 512;" xml:space="preserve">
<style type="text/css">
	.st0{fill:#97C89A;}
</style>
<g>
	<g>
		<path class="st0" d="M501.1,43.9c-54.5,0-109.1,0-163.6,0c-81.1,0-162.3,0-243.4,0c-12.3,0-24.5,0-36.8,0c-6,0-11,5-11,11
			c0,57.7,0,115.4,0,173.2c0,73.1,0,146.2,0,219.3c0,3.3,0,6.5,0,9.8c0,6,5,11,11,11c54.5,0,109.1,0,163.6,0c81.1,0,162.3,0,243.4,0
			c12.2,0,24.5,0,36.8,0c3,0,5.2-1.1,7-2.7c0.2-0.2,0.5-0.3,0.7-0.6c0.2-0.2,0.4-0.5,0.5-0.7c1.6-1.7,2.7-3.9,2.7-7
			c0-57.7,0-115.4,0-173.2c0-73.1,0-146.2,0-219.3c0-3.3,0-6.5,0-9.8C512,48.9,507,43.9,501.1,43.9z M337.4,446.2
			c-81.1,0-162.3,0-243.4,0c-8.6,0-17.2,0-25.8,0c0-54.1,0-108.1,0-162.2c0-72.7,0-145.4,0-218.1c50.9,0,101.8,0,152.7,0
			c81.1,0,162.3,0,243.4,0c8.6,0,17.2,0,25.8,0c0,54.1,0,108.1,0,162.2c0,72.7,0,145.4,0,218.1C439.2,446.2,388.3,446.2,337.4,446.2
			z"/>
		<path class="st0" d="M227.4,366.1c2.3,0,3.9-0.8,5.2-2c0.2-0.1,0.4-0.2,0.5-0.4c0.2-0.2,0.3-0.4,0.4-0.6c1.2-1.3,2-3,2-5.2
			c0-41.7,0-83.4,0-125.1c0-4.5-3.7-8.2-8.2-8.2c-43.8,0-87.7,0-131.5,0c-4.5,0-8.2,3.7-8.2,8.2c0,41.7,0,83.4,0,125.1
			c0,4.5,3.7,8.2,8.2,8.2C139.7,366.1,183.6,366.1,227.4,366.1z M104.1,241c38.4,0,76.7,0,115.1,0c0,36.2,0,72.4,0,108.7
			c-38.4,0-76.7,0-115.1,0C104.1,313.4,104.1,277.2,104.1,241z"/>
		<path class="st0" d="M468.5,73.8c-21.9,0-43.8,0-65.8,0c-3,0-5.5,2.5-5.5,5.5c0,12.6,0,25.3,0,37.9c0,3,2.5,5.5,5.5,5.5
			c21.9,0,43.8,0,65.8,0c1.5,0,2.6-0.6,3.5-1.3c0.1-0.1,0.3-0.2,0.4-0.3c0.1-0.1,0.2-0.2,0.3-0.4c0.8-0.9,1.3-2,1.3-3.5
			c0-12.6,0-25.3,0-37.9C474,76.3,471.5,73.8,468.5,73.8z M463.1,111.8c-18.3,0-36.5,0-54.8,0c0-9,0-18,0-27c18.3,0,36.5,0,54.8,0
			C463.1,93.8,463.1,102.8,463.1,111.8z"/>
		<path class="st0" d="M468.5,139.6c-59.1,0-118.2,0-177.3,0c-68.5,0-137,0-205.4,0c-1.1,0-2.2,0-3.3,0c-3,0-5.5,2.5-5.5,5.5
			c0,12.6,0,25.3,0,37.9c0,3,2.5,5.5,5.5,5.5c59.1,0,118.2,0,177.3,0c68.5,0,137,0,205.4,0c1.1,0,2.2,0,3.3,0c1.5,0,2.6-0.6,3.5-1.3
			c0.1-0.1,0.3-0.2,0.4-0.3c0.1-0.1,0.2-0.2,0.3-0.4c0.8-0.9,1.3-2,1.3-3.5c0-12.6,0-25.3,0-37.9C474,142.1,471.5,139.6,468.5,139.6
			z M463.1,177.5c-57.3,0-114.5,0-171.8,0c-67.8,0-135.5,0-203.3,0c0-9,0-18,0-27c57.3,0,114.5,0,171.8,0c67.8,0,135.5,0,203.3,0
			C463.1,159.5,463.1,168.5,463.1,177.5z"/>
		<path class="st0" d="M468.5,231.8c-65.3,0-130.5,0-195.8,0c-1.4,0-2.8,0-4.3,0c-7.1,0-7.1,11,0,11c65.3,0,130.5,0,195.8,0
			c1.4,0,2.8,0,4.3,0C475.6,242.8,475.6,231.8,468.5,231.8z"/>
		<path class="st0" d="M468.5,253.8c-65.3,0-130.5,0-195.8,0c-1.4,0-2.8,0-4.3,0c-7.1,0-7.1,11,0,11c65.3,0,130.5,0,195.8,0
			c1.4,0,2.8,0,4.3,0C475.6,264.7,475.6,253.8,468.5,253.8z"/>
		<path class="st0" d="M468.5,275.7c-65.3,0-130.5,0-195.8,0c-1.4,0-2.8,0-4.3,0c-7.1,0-7.1,11,0,11c65.3,0,130.5,0,195.8,0
			c1.4,0,2.8,0,4.3,0C475.6,286.6,475.6,275.7,468.5,275.7z"/>
		<path class="st0" d="M468.5,297.6c-65.3,0-130.5,0-195.8,0c-1.4,0-2.8,0-4.3,0c-7.1,0-7.1,11,0,11c65.3,0,130.5,0,195.8,0
			c1.4,0,2.8,0,4.3,0C475.6,308.6,475.6,297.6,468.5,297.6z"/>
		<path class="st0" d="M468.5,319.5c-65.3,0-130.5,0-195.8,0c-1.4,0-2.8,0-4.3,0c-7.1,0-7.1,11,0,11c65.3,0,130.5,0,195.8,0
			c1.4,0,2.8,0,4.3,0C475.6,330.5,475.6,319.5,468.5,319.5z"/>
		<path class="st0" d="M468.5,341.5c-65.3,0-130.5,0-195.8,0c-1.4,0-2.8,0-4.3,0c-7.1,0-7.1,11,0,11c65.3,0,130.5,0,195.8,0
			c1.4,0,2.8,0,4.3,0C475.6,352.4,475.6,341.5,468.5,341.5z"/>
		<path class="st0" d="M468.5,396.3c-60.3,0-120.6,0-180.8,0c-63.8,0-127.6,0-191.4,0c-0.1,0-0.3,0-0.4,0c-7.1,0-7.1,11,0,11
			c60.3,0,120.6,0,180.8,0c63.8,0,127.6,0,191.4,0c0.2,0,0.3,0,0.4,0C475.6,407.2,475.6,396.3,468.5,396.3z"/>
		<polygon class="st0" points="38.4,445.6 38.4,245.5 0,246.9 		"/>
	</g>
</g>
</svg>
