<?xml version="1.0" encoding="iso-8859-1"?>
<!-- Generator: Adobe Illustrator 18.1.1, SVG Export Plug-In . SVG Version: 6.00 Build 0)  -->
<svg xmlns="http://www.w3.org/2000/svg" xmlns:xlink="http://www.w3.org/1999/xlink" version="1.1" id="Capa_1" x="0px" y="0px" viewBox="0 0 46.715 46.715" style="enable-background:new 0 0 46.715 46.715;" xml:space="preserve" width="512px" height="512px">
<g>
	<g>
		<path d="M45.716,4.006c-4.976,0-9.952,0-14.929,0c-7.403,0-14.806,0-22.21,0c-1.118,0-2.237,0-3.355,0    c-0.545,0-1,0.455-1,1c0,5.266,0,10.533,0,15.799c0,6.669,0,13.34,0,20.01c0,0.298,0,0.595,0,0.894c0,0.545,0.455,1,1,1    c4.976,0,9.952,0,14.929,0c7.404,0,14.806,0,22.21,0c1.117,0,2.236,0,3.354,0c0.275,0,0.479-0.103,0.637-0.246    c0.022-0.017,0.047-0.031,0.067-0.051c0.019-0.021,0.033-0.044,0.05-0.066c0.145-0.157,0.246-0.36,0.246-0.637    c0-5.267,0-10.533,0-15.8c0-6.67,0-13.34,0-20.01c0-0.298,0-0.595,0-0.893C46.716,4.461,46.262,4.006,45.716,4.006z     M30.787,40.709c-7.403,0-14.806,0-22.21,0c-0.785,0-1.57,0-2.355,0c0-4.934,0-9.865,0-14.8c0-6.634,0-13.269,0-19.903    c4.643,0,9.285,0,13.929,0c7.404,0,14.806,0,22.21,0c0.783,0,1.568,0,2.354,0c0,4.933,0,9.866,0,14.799    c0.001,6.634,0.001,13.269,0.001,19.904C40.073,40.709,35.432,40.709,30.787,40.709z" fill="#35c7d4"/>
		<path d="M20.75,33.404c0.206,0,0.359-0.077,0.478-0.186c0.017-0.013,0.034-0.022,0.05-0.037    c0.014-0.017,0.025-0.033,0.038-0.051c0.107-0.117,0.184-0.27,0.184-0.476c0-3.807,0-7.611,0-11.417c0-0.409-0.341-0.75-0.75-0.75    c-4,0-8,0-12,0c-0.409,0-0.75,0.341-0.75,0.75c0,3.806,0,7.61,0,11.417c0,0.409,0.341,0.75,0.75,0.75    C12.75,33.404,16.75,33.404,20.75,33.404z M9.5,21.987c3.5,0,7,0,10.5,0c0,3.306,0,6.61,0,9.917c-3.5,0-7,0-10.5,0    C9.5,28.597,9.5,25.293,9.5,21.987z" fill="#35c7d4"/>
		<path d="M42.75,6.737c-2,0-4,0-6,0c-0.273,0-0.5,0.227-0.5,0.5c0,1.153,0,2.306,0,3.46    c0,0.273,0.227,0.5,0.5,0.5c2,0,4,0,6,0c0.137,0,0.238-0.051,0.316-0.122c0.013-0.009,0.023-0.016,0.035-0.026    c0.01-0.01,0.017-0.021,0.024-0.032c0.071-0.079,0.123-0.182,0.123-0.319c0-1.153,0-2.306,0-3.46    C43.25,6.964,43.023,6.737,42.75,6.737z M42.25,10.197c-1.667,0-3.333,0-5,0c0-0.82,0-1.64,0-2.46c1.667,0,3.333,0,5,0    C42.25,8.557,42.25,9.377,42.25,10.197z" fill="#35c7d4"/>
		<path d="M42.75,12.737c-5.393,0-10.784,0-16.176,0c-6.248,0-12.497,0-18.745,0c-0.1,0-0.201,0-0.301,0    c-0.273,0-0.5,0.227-0.5,0.5c0,1.153,0,2.306,0,3.46c0,0.273,0.227,0.5,0.5,0.5c5.392,0,10.784,0,16.176,0    c6.248,0,12.497,0,18.745,0c0.1,0,0.201,0,0.301,0c0.137,0,0.238-0.051,0.316-0.122c0.013-0.009,0.023-0.016,0.035-0.026    c0.01-0.01,0.017-0.021,0.024-0.032c0.071-0.079,0.123-0.182,0.123-0.319c0-1.153,0-2.306,0-3.46    C43.25,12.964,43.023,12.737,42.75,12.737z M42.25,16.197c-5.227,0-10.451,0-15.676,0c-6.182,0-12.365,0-18.546,0    c0-0.82,0-1.64,0-2.46c5.226,0,10.451,0,15.676,0c6.183,0,12.364,0,18.546,0C42.25,14.557,42.25,15.377,42.25,16.197z" fill="#35c7d4"/>
		<path d="M42.75,21.154c-5.954,0-11.908,0-17.862,0c-0.129,0-0.259,0-0.388,0c-0.645,0-0.645,1,0,1    c5.954,0,11.908,0,17.861,0c0.13,0,0.26,0,0.389,0C43.395,22.154,43.395,21.154,42.75,21.154z" fill="#35c7d4"/>
		<path d="M42.75,23.154c-5.954,0-11.908,0-17.862,0c-0.129,0-0.259,0-0.388,0c-0.645,0-0.645,1,0,1    c5.954,0,11.908,0,17.861,0c0.13,0,0.26,0,0.389,0C43.395,24.154,43.395,23.154,42.75,23.154z" fill="#35c7d4"/>
		<path d="M42.75,25.154c-5.954,0-11.908,0-17.862,0c-0.129,0-0.259,0-0.388,0c-0.645,0-0.645,1,0,1    c5.954,0,11.908,0,17.861,0c0.13,0,0.26,0,0.389,0C43.395,26.154,43.395,25.154,42.75,25.154z" fill="#35c7d4"/>
		<path d="M42.75,27.154c-5.954,0-11.908,0-17.862,0c-0.129,0-0.259,0-0.388,0c-0.645,0-0.645,1,0,1    c5.954,0,11.908,0,17.861,0c0.13,0,0.26,0,0.389,0C43.395,28.154,43.395,27.154,42.75,27.154z" fill="#35c7d4"/>
		<path d="M42.75,29.154c-5.954,0-11.908,0-17.862,0c-0.129,0-0.259,0-0.388,0c-0.645,0-0.645,1,0,1    c5.954,0,11.908,0,17.861,0c0.13,0,0.26,0,0.389,0C43.395,30.154,43.395,29.154,42.75,29.154z" fill="#35c7d4"/>
		<path d="M42.75,31.154c-5.954,0-11.908,0-17.862,0c-0.129,0-0.259,0-0.388,0c-0.645,0-0.645,1,0,1    c5.954,0,11.908,0,17.861,0c0.13,0,0.26,0,0.389,0C43.395,32.154,43.395,31.154,42.75,31.154z" fill="#35c7d4"/>
		<path d="M42.75,36.154c-5.5,0-11,0-16.5,0c-5.82,0-11.641,0-17.461,0c-0.013,0-0.026,0-0.039,0    c-0.645,0-0.645,1,0,1c5.5,0,11,0,16.5,0c5.82,0,11.641,0,17.461,0c0.014,0,0.025,0,0.039,0    C43.395,37.154,43.395,36.154,42.75,36.154z" fill="#35c7d4"/>
		<polygon points="3.5,40.654 3.5,22.404 0,22.529   " fill="#35c7d4"/>
	</g>
</g>
<g>
</g>
<g>
</g>
<g>
</g>
<g>
</g>
<g>
</g>
<g>
</g>
<g>
</g>
<g>
</g>
<g>
</g>
<g>
</g>
<g>
</g>
<g>
</g>
<g>
</g>
<g>
</g>
<g>
</g>
</svg>
