<?xml version="1.0" encoding="utf-8"?>
<!-- Generator: Adobe Illustrator 21.0.2, SVG Export Plug-In . SVG Version: 6.00 Build 0)  -->
<svg version="1.1" id="Capa_1" xmlns="http://www.w3.org/2000/svg" xmlns:xlink="http://www.w3.org/1999/xlink" x="0px" y="0px"
	 viewBox="0 0 512 512" style="enable-background:new 0 0 512 512;" xml:space="preserve">
<style type="text/css">
	.st0{fill:#97C89A;}
</style>
<g>
	<path class="st0" d="M326,398.1c-4.7-1.1-9.5,1.9-10.5,6.6l-10.2,44.2H19.8L46.8,332h217.5c4.9,0,8.8-3.9,8.8-8.8
		c0-4.9-3.9-8.8-8.8-8.8H46.8L19.8,197.6h285.4l13,56.3c1.1,4.7,5.8,7.7,10.5,6.6c4.7-1.1,7.7-5.8,6.6-10.5l-14.1-61.1l30.5-132.5
		c0.6-2.6,0-5.4-1.7-7.4c-1.7-2.1-4.2-3.3-6.9-3.3H39.8c-4.1,0-7.6,2.8-8.6,6.8l-31,134.4c-0.3,1.3-0.3,2.6,0,3.9l30.5,132.5
		L0.2,455.7c-0.6,2.6,0,5.4,1.7,7.4s4.2,3.3,6.9,3.3h303.5c4.1,0,7.6-2.8,8.6-6.8l11.7-51C333.7,403.9,330.7,399.2,326,398.1z
		 M46.8,63.1h285.4L305.3,180H19.8L46.8,63.1z"/>
	<path class="st0" d="M73.9,109.3h151.2c4.9,0,8.8-3.9,8.8-8.8c0-4.9-3.9-8.8-8.8-8.8H73.9c-4.9,0-8.8,3.9-8.8,8.8
		C65.1,105.3,69,109.3,73.9,109.3z"/>
	<path class="st0" d="M58,151.5h151.2c4.9,0,8.8-3.9,8.8-8.8s-3.9-8.8-8.8-8.8H58c-4.9,0-8.8,3.9-8.8,8.8S53.2,151.5,58,151.5z"/>
	<path class="st0" d="M233.9,369.3c0-4.9-3.9-8.8-8.8-8.8H73.9c-4.9,0-8.8,3.9-8.8,8.8c0,4.9,3.9,8.8,8.8,8.8h151.2
		C229.9,378.1,233.9,374.2,233.9,369.3z"/>
	<path class="st0" d="M58,402.7c-4.9,0-8.8,3.9-8.8,8.8c0,4.9,3.9,8.8,8.8,8.8h151.2c4.9,0,8.8-3.9,8.8-8.8c0-4.9-3.9-8.8-8.8-8.8
		H58z"/>
	<path class="st0" d="M218,234.9c0-4.9-3.9-8.8-8.8-8.8H58c-4.9,0-8.8,3.9-8.8,8.8s3.9,8.8,8.8,8.8h151.2
		C214.1,243.7,218,239.8,218,234.9z"/>
	<path class="st0" d="M73.9,285.9h151.2c4.9,0,8.8-3.9,8.8-8.8s-3.9-8.8-8.8-8.8H73.9c-4.9,0-8.8,3.9-8.8,8.8S69,285.9,73.9,285.9z"
		/>
	<path class="st0" d="M253.4,117.6c0.6,3.1,2.8,5.6,5.8,6.6c0.9,0.3,1.9,0.5,2.8,0.5c2.1,0,4.2-0.8,5.8-2.2l29.9-26.4
		c3.6-3.2,4-8.8,0.8-12.4c-3.2-3.6-8.8-4-12.4-0.8l-18.4,16.3l-0.5-2.6c-1-4.8-5.6-7.8-10.3-6.9c-4.8,1-7.8,5.6-6.9,10.3
		L253.4,117.6z"/>
	<path class="st0" d="M262.4,261.1c0.4,0,0.9,0,1.3-0.1c3.1-0.5,5.7-2.6,6.9-5.5l14.5-37.1c1.8-4.5-0.5-9.6-5-11.4
		c-4.5-1.8-9.6,0.5-11.4,5l-9,22.9l-1.7-2.1c-3-3.8-8.6-4.4-12.4-1.4c-3.8,3-4.4,8.6-1.4,12.4l11.2,14
		C257.2,259.9,259.8,261.1,262.4,261.1z"/>
	<path class="st0" d="M263.4,303.2c1.7,2.1,4.2,3.3,6.9,3.3c0.4,0,0.9,0,1.3-0.1c3.1-0.5,5.7-2.6,6.9-5.5l14.5-37.1
		c1.8-4.5-0.5-9.6-5-11.4c-4.5-1.8-9.6,0.5-11.4,5l-9,22.9l-1.7-2.1c-3-3.8-8.6-4.4-12.4-1.4c-3.8,3-4.4,8.6-1.4,12.4L263.4,303.2z"
		/>
	<path class="st0" d="M509.6,209.5l-44.8-47.8c-1.6-1.7-3.8-2.7-6.1-2.8c-2.3-0.1-4.6,0.8-6.3,2.4l-168,157.6
		c-1.1,1-1.9,2.3-2.3,3.7l-21.2,64.8c-1,3.1-0.3,6.4,1.9,8.7c1.7,1.8,4,2.8,6.4,2.8c0.7,0,1.5-0.1,2.2-0.3l66-17
		c1.4-0.4,2.7-1.1,3.8-2.1l168-157.6C512.8,218.6,512.9,213,509.6,209.5z M282.5,377.6l11.6-35.4l24.5,26.1L282.5,377.6z
		 M335.6,360.7l-32.8-35L458,180.1l32.8,35L335.6,360.7z"/>
</g>
</svg>
