<?xml version="1.0" encoding="utf-8"?>
<!-- Generator: Adobe Illustrator 21.0.2, SVG Export Plug-In . SVG Version: 6.00 Build 0)  -->
<svg version="1.1" id="Capa_1" xmlns="http://www.w3.org/2000/svg" xmlns:xlink="http://www.w3.org/1999/xlink" x="0px" y="0px"
	 viewBox="0 0 512 512" style="enable-background:new 0 0 512 512;" xml:space="preserve">
<style type="text/css">
	.st0{fill:#97C89A;}
</style>
<g>
	<path class="st0" d="M477.2,442.3c-6.6,0-12.8,1.8-18.1,5.1l-141-141c-0.2-0.2-0.5-0.5-0.8-0.7c11-13.6,17.7-30.9,17.7-49.8
		c0-18.8-6.6-36.1-17.6-49.7l96.1-96.1c10.3,7.9,23.2,12.5,37.1,12.5c33.8,0,61.4-27.5,61.4-61.4S484.5,0,450.6,0
		s-61.4,27.5-61.4,61.4c0,13.9,4.7,26.8,12.5,37.1l-96.1,96.1c-13.6-11-30.9-17.6-49.7-17.6s-36.1,6.6-49.7,17.6l-44.4-44.4
		c3.2-5.3,5.1-11.4,5.1-18.1c0-19.2-15.6-34.8-34.8-34.8s-34.8,15.6-34.8,34.8s15.6,34.8,34.8,34.8c6.6,0,12.8-1.8,18.1-5.1
		l44.4,44.4c-11,13.6-17.6,30.9-17.6,49.7c0,10.7,2.1,20.9,6,30.2L77.4,343.3c-8-9.7-20.2-16-33.7-16C19.6,327.3,0,346.9,0,371
		s19.6,43.7,43.7,43.7s43.7-19.6,43.7-43.7c0-4.6-0.7-9-2-13.1l105.5-57.1c14.3,20.7,38.1,34.3,65.2,34.3c3,0,6-0.2,9-0.5l11,49.5
		c-11.5,5.7-19.4,17.5-19.4,31.2c0,19.2,15.6,34.8,34.8,34.8c19.2,0,34.8-15.6,34.8-34.8c0-19-15.2-34.4-34.1-34.8l-11-49.5
		c9-3,17.4-7.7,24.6-13.6c0.2,0.3,0.4,0.5,0.7,0.8l141,141c-3.2,5.3-5.1,11.4-5.1,18.1c0,19.2,15.6,34.8,34.8,34.8
		s34.8-15.6,34.8-34.8S496.4,442.3,477.2,442.3z M43.7,398.1c-14.9,0-27.1-12.2-27.1-27.1s12.2-27.1,27.1-27.1s27.1,12.2,27.1,27.1
		S58.6,398.1,43.7,398.1z M309.6,415.2c0,10.1-8.2,18.2-18.2,18.2s-18.2-8.2-18.2-18.2c0-10.1,8.2-18.2,18.2-18.2
		C301.4,397,309.6,405.2,309.6,415.2z M450.6,16.6c24.7,0,44.8,20.1,44.8,44.8s-20.1,44.8-44.8,44.8s-44.8-20.1-44.8-44.8
		S425.9,16.6,450.6,16.6z M113.9,132.1c0-10.1,8.2-18.2,18.2-18.2s18.2,8.2,18.2,18.2s-8.2,18.2-18.2,18.2S113.9,142.2,113.9,132.1z
		 M256,318.5c-34.5,0-62.5-28-62.5-62.5s28-62.5,62.5-62.5s62.5,28,62.5,62.5S290.5,318.5,256,318.5z M477.2,495.4
		c-10.1,0-18.2-8.2-18.2-18.2s8.2-18.2,18.2-18.2s18.2,8.2,18.2,18.2S487.2,495.4,477.2,495.4z"/>
	<path class="st0" d="M256,212.3c-4.6,0-8.3,3.7-8.3,8.3s3.7,8.3,8.3,8.3c14.9,0,27.1,12.2,27.1,27.1c0,4.6,3.7,8.3,8.3,8.3
		s8.3-3.7,8.3-8.3C299.7,231.9,280.1,212.3,256,212.3z"/>
	<path class="st0" d="M450.6,52c5.2,0,9.4,4.2,9.4,9.4c0,4.6,3.7,8.3,8.3,8.3s8.3-3.7,8.3-8.3c0-14.3-11.7-26-26-26
		c-4.6,0-8.3,3.7-8.3,8.3S446,52,450.6,52z"/>
</g>
</svg>
