<?xml version="1.0" encoding="utf-8"?>
<!-- Generator: Adobe Illustrator 21.0.2, SVG Export Plug-In . SVG Version: 6.00 Build 0)  -->
<svg version="1.1" id="Layer_1" xmlns="http://www.w3.org/2000/svg" xmlns:xlink="http://www.w3.org/1999/xlink" x="0px" y="0px"
	 viewBox="0 0 512 512" style="enable-background:new 0 0 512 512;" xml:space="preserve">
<style type="text/css">
	.st0{fill:#97C89A;}
</style>
<g>
	<g>
		<path class="st0" d="M176.3,331.6c18.4,0,36-6,50.7-17.2c2.4-1.8,7.2-8.7,1-15.6l-51-51.2v-72.3c-0.8-9.8-8.8-10.7-11.8-10.3
			c-41.4,5.5-72.6,41.1-72.6,82.9C92.6,294,130.2,331.6,176.3,331.6L176.3,331.6z M156.1,188.4v59.4c0,5.4,2.1,10.5,5.9,14.3l42,42
			c-8.6,4.3-18,6.5-27.8,6.5c-34.7,0-62.8-28.2-62.8-62.8C113.5,220.7,131.1,196.9,156.1,188.4L156.1,188.4z"/>
		<path class="st0" d="M241.8,286.9c7.1,6.2,13.8,1.3,15.6-1c11.3-14.7,17.2-32.3,17.2-50.7c0-41.7-31.2-77.4-72.6-82.9
			c-4.5-0.6-11.4,2-11.8,10.3v68.5c0,2.8,1.1,5.4,3.1,7.4L241.8,286.9z M211.2,175.7c25,8.5,42.7,32.2,42.7,59.4
			c0,9.8-2.2,19.2-6.5,27.8l-36.1-36.1L211.2,175.7L211.2,175.7z"/>
		<path class="st0" d="M436.8,11H75.2c-27,0-48.9,22-48.9,48.9c0,18.9,10.8,35.4,26.6,43.5v281.9c0,5.8,4.7,10.4,10.4,10.4h182.4v37
			l-50.5,50.5c-4.1,4.1-4.1,10.7,0,14.7c4.1,4.1,10.7,4.1,14.7,0l46.2-46.2l46.2,46.2c6.7,5.8,12.7,2,14.7,0
			c4.1-4.1,4.1-10.7,0-14.7l-50.5-50.5v-37h182.4c5.8,0,10.4-4.7,10.4-10.4V103.4c15.7-8.1,26.5-24.6,26.5-43.5
			C485.8,33,463.8,11,436.8,11z M438.4,374.9H73.6v-266h364.8V374.9z M436.8,88H75.2c-15.5,0-28.1-12.6-28.1-28.1
			s12.6-28.1,28.1-28.1h361.7c15.5,0,28.1,12.6,28.1,28.1C464.9,75.4,452.3,88,436.8,88z"/>
		<path class="st0" d="M409,327.5c5.8,0,10.4-4.7,10.4-10.4V166.7c0-5.8-4.7-10.4-10.4-10.4c-5.8,0-10.4,4.7-10.4,10.4v150.4
			C398.5,322.9,403.2,327.5,409,327.5z"/>
		<path class="st0" d="M363.6,327.5c5.8,0,10.4-4.7,10.4-10.4V202.7c0-5.8-4.7-10.4-10.4-10.4c-5.8,0-10.4,4.7-10.4,10.4v114.4
			C353.2,322.9,357.9,327.5,363.6,327.5z"/>
		<path class="st0" d="M318.3,327.5c5.8,0,10.4-4.7,10.4-10.4v-87c0-5.8-4.7-10.4-10.4-10.4c-5.8,0-10.4,4.7-10.4,10.4v87
			C307.9,322.9,312.6,327.5,318.3,327.5z"/>
	</g>
</g>
</svg>
