<?xml version="1.0" encoding="utf-8"?>
<!-- Generator: Adobe Illustrator 21.0.2, SVG Export Plug-In . SVG Version: 6.00 Build 0)  -->
<svg version="1.1" id="Capa_1" xmlns="http://www.w3.org/2000/svg" xmlns:xlink="http://www.w3.org/1999/xlink" x="0px" y="0px"
	 viewBox="0 0 512 512" style="enable-background:new 0 0 512 512;" xml:space="preserve">
<style type="text/css">
	.st0{fill:#97C89A;}
</style>
<g>
	<g>
		<path class="st0" d="M512,438.8v-388c0-5.4-4.4-9.8-9.8-9.8H9.8C4.4,41,0,45.4,0,50.8v217.6V307v131.8c0,5.4,4.4,9.8,9.8,9.8
			h125.7h39.1h284.2l19.5,19.5c1.9,1.9,4.4,2.9,6.9,2.9s5-1,6.9-2.9c3.8-3.8,3.8-10,0-13.8l-5.7-5.7h15.8
			C507.6,448.6,512,444.2,512,438.8z M492.4,429h-25.6l-10-10h16.8c5.4,0,9.8-4.4,9.8-9.8V119.6c0-5.4-4.4-9.8-9.8-9.8H38.4
			c-5.4,0-9.8,4.4-9.8,9.8v117.8v64.9v106.9c0,5.4,4.4,9.8,9.8,9.8h103.3h65.1h222.4l10,10H174.5h-39.1H19.6V307v-38.6V60.6h472.9
			V429z M292.2,352.4c-46.4,0-84.2-37.8-84.2-84.2c0-31.9,17.9-59.7,44.1-74h3.9c3.8,0,7.1-2.3,8.7-5.5c8.6-3,17.8-4.7,27.5-4.7
			c46.4,0,84.2,37.8,84.2,84.2C376.4,314.6,338.6,352.4,292.2,352.4z M396,268.2c0-57.2-46.5-103.8-103.8-103.8
			c-16,0-31,3.7-44.5,10.2H90c-5.4,0-9.8,4.4-9.8,9.8c0,5.4,4.4,9.8,9.8,9.8h129.6c-4.8,4.7-9.1,9.8-12.9,15.3H90
			c-5.4,0-9.8,4.4-9.8,9.8s4.4,9.8,9.8,9.8h106.1c-2,5-3.6,10.1-4.9,15.4H90c-5.4,0-9.8,4.4-9.8,9.8c0,5.4,4.4,9.8,9.8,9.8h98.6
			c0,1.4-0.2,2.8-0.2,4.2c0,3.7,0.2,7.4,0.6,11H90c-5.4,0-9.8,4.4-9.8,9.8c0,5.4,4.4,9.8,9.8,9.8h103c1.7,5.5,3.9,10.7,6.5,15.8H90
			c-5.4,0-9.8,4.4-9.8,9.8s4.4,9.8,9.8,9.8h122c0,0,0,0,0,0c5.8,7,12.5,13.2,19.9,18.5H90c-5.4,0-9.8,4.4-9.8,9.8
			c0,5.4,4.4,9.8,9.8,9.8h194.5c0.8,0,1.5-0.3,2.2-0.5c1.8,0.1,3.6,0.3,5.5,0.3c25.1,0,48.1-9,66.1-23.8l51.3,51.3H206.7h-65.1H48.2
			v-97.1v-64.9v-108h415.7v270h-26.6l-65.1-65.1C387,316.3,396,293.3,396,268.2z"/>
		<path class="st0" d="M462.7,95.3h11.4c5.4,0,9.8-4.4,9.8-9.8s-4.4-9.8-9.8-9.8h-11.4c-5.4,0-9.8,4.4-9.8,9.8
			S457.3,95.3,462.7,95.3z"/>
		<path class="st0" d="M364.9,95.3h11.4c5.4,0,9.8-4.4,9.8-9.8s-4.4-9.8-9.8-9.8h-11.4c-5.4,0-9.8,4.4-9.8,9.8
			S359.5,95.3,364.9,95.3z"/>
		<path class="st0" d="M413.8,95.3h11.4c5.4,0,9.8-4.4,9.8-9.8s-4.4-9.8-9.8-9.8h-11.4c-5.4,0-9.8,4.4-9.8,9.8
			S408.4,95.3,413.8,95.3z"/>
		<path class="st0" d="M364.9,268.2c0-40.1-32.6-72.7-72.7-72.7c-5.4,0-9.8,4.4-9.8,9.8s4.4,9.8,9.8,9.8c29.3,0,53.1,23.8,53.1,53.1
			c0,5.4,4.4,9.8,9.8,9.8C360.5,278,364.9,273.6,364.9,268.2z"/>
	</g>
</g>
</svg>
